<?xml version="1.0" encoding="utf-8"?>
<!-- Generator: Adobe Illustrator 26.5.0, SVG Export Plug-In . SVG Version: 6.00 Build 0)  -->
<svg version="1.1" id="Layer_1" xmlns="http://www.w3.org/2000/svg" xmlns:xlink="http://www.w3.org/1999/xlink" x="0px" y="0px"
	 viewBox="0 0 645.8 164.8" style="enable-background:new 0 0 645.8 164.8;" xml:space="preserve">
<style type="text/css">
	.st0{fill:#0B3F4B;}
	.st1{fill:#00AAA3;}
</style>
<path class="st0" d="M68.8,0.4v100.4H55.7v-9.4c-4.8,6.8-13.3,10.8-23,10.8C13.9,102.3,0.5,87.6,0.5,68s13.5-34.4,32.1-34.4
	c9.1,0,17,3.5,22,9.5V0.4H68.8L68.8,0.4z M54.9,68c0-14.9-10-21.6-19.8-21.6c-11.4,0-20.2,8.7-20.2,21.4s8.7,21.6,20.2,21.6
	C44.9,89.5,54.9,83,54.9,68z"/>
<g>
	<rect x="78.8" y="10.7" class="st0" width="14.3" height="14.2"/>
	<path class="st0" d="M93,100.9H79V35.1H93V100.9z"/>
</g>
<rect x="177.4" y="10.7" transform="matrix(0.7071 -0.7071 0.7071 0.7071 41.4376 135.6911)" class="st1" width="14.2" height="14.3"/>
<path class="st0" d="M191.5,100.9h-14.1V35.1h14.1V100.9z"/>
<path class="st0" d="M244.4,88.9v11.9c-3.6,0.8-7.2,1.5-11.6,1.5c-14.6,0-24.2-7-24.2-22.9V47.3h-10.7V35.1h10.7V17.8h14.2v17.3
	h19.6v12.2h-19.6v30.9c0,8.7,4.8,11.4,13,11.4C238.1,89.6,240.9,89.3,244.4,88.9L244.4,88.9z"/>
<path class="st0" d="M305.3,61.1v39.8h-13.1v-7.4c-4.7,5.6-11.9,8.8-21,8.8c-13.8,0-22.9-7.6-22.9-19s9.5-18.8,24.2-18.8h18.6v-4.3
	c0-9.1-5.1-14.1-14.1-14.1c-7.6,0-13,3.6-18.2,9.8l-8.2-8.3c6.8-9.6,16.6-14.1,27.7-14.1C294.2,33.6,305.3,42.9,305.3,61.1
	L305.3,61.1z M291.1,76v-1.2h-16.9c-7.5,0-11.6,2.7-11.6,8c0,5.8,5.1,8.7,11.5,8.7C283.3,91.5,291.1,84.9,291.1,76L291.1,76z"/>
<path class="st0" d="M328.6,100.9h-14.1V0.4h14.1V100.9z"/>
<path class="st0" d="M399,48.9l-9.9,7.8c-4.3-6-9.8-10-17.7-10c-12,0-20.6,9.4-20.6,21.3s8.6,21.4,20.6,21.4
	c7.8,0,13.3-3.9,17.7-9.9l9.9,7.6c-5.8,9.2-15.4,15.3-27.7,15.3c-19.4,0-34.8-15-34.8-34.4s15.4-34.3,34.8-34.3
	C383.7,33.6,393.4,39.7,399,48.9L399,48.9z"/>
<path class="st0" d="M444.7,35.1v12.5h-4.3c-10.5,0-19.3,6-19.3,18.2v35.1h-14.1V35.1h13.1v8.6c4.5-6,11.6-9.2,19.1-9.2
	C441.6,34.4,443.2,34.7,444.7,35.1L444.7,35.1z"/>
<path class="st0" d="M503.7,61.1v39.8h-13.1v-7.4c-4.7,5.6-11.9,8.8-21,8.8c-13.8,0-22.9-7.6-22.9-19s9.5-18.8,24.2-18.8h18.6v-4.3
	c0-9.1-5.1-14.1-14.1-14.1c-7.6,0-13,3.6-18.2,9.8l-8.2-8.3c6.8-9.6,16.6-14.1,27.7-14.1C492.6,33.6,503.7,42.9,503.7,61.1z
	 M489.5,76v-1.2h-16.9c-7.5,0-11.6,2.7-11.6,8c0,5.8,5.1,8.7,11.5,8.7C481.7,91.5,489.5,84.9,489.5,76L489.5,76z"/>
<path class="st0" d="M582.4,89.6c-8.2,0-13-2.7-13-11.4V47.3H589V35.1h-19.5V17.8h-14.2v17.3h-26.5V23c0-8.7,4.8-11.4,12.9-11.4
	c1.7,0,3.5,0.1,5.6,0.4V0.2c-2.5-0.8-5.4-1.2-9.1-1.2c-13.9,0-23.4,7-23.4,22.9v13.3h-9.4v12.2h9.4v53.6h14.1V47.3h26.5v32.1
	c0,15.9,9.6,22.9,24.2,22.9c4.4,0,8-0.7,11.7-1.5V88.9C587.6,89.3,584.8,89.6,582.4,89.6L582.4,89.6z"/>
<path class="st0" d="M644.1,43.8l-7.6,8.7c-4.2-4.3-9.6-6.7-15.4-6.7c-5.2,0-9,2-9,6.3c0,3.6,2.7,5.4,8.7,7.8l6.3,2.5
	c11.9,4.9,18,10.2,18,19.8c0,13.3-11.2,20.1-24.4,20.1c-11.7,0-20.9-5.4-26.5-12.7l8-8.8c5.2,5.5,11,9.4,18.5,9.4
	c5.8,0,10.6-2.4,10.6-7.4c0-4.3-3.9-6-9.2-8.2l-6.7-2.8c-10.6-4.4-17.1-9.2-17.1-19.2c0-12.2,10.2-19,23.2-19
	C630.8,33.6,638.6,37.2,644.1,43.8L644.1,43.8z"/>
<g>
	<polygon class="st0" points="144.5,134.8 144.5,124.6 135.7,119.6 126.9,124.6 126.9,134.8 135.7,139.9 	"/>
	<path class="st0" d="M156.4,100.8l-0.5-0.4v-4.3l0.5-0.4c8.9-6.7,14-17,14-28c0-19.4-15.8-35.2-35.2-35.2S100,48.3,100,67.7
		c0,11,5.1,21.2,14,28l0.4,0.3l0,4.4l-0.4,0.3c-8.9,6.7-14,16.9-14,28c0,19.4,15.8,35.2,35.2,35.2s35.2-15.8,35.2-35.2
		C170.4,117.7,165.3,107.5,156.4,100.8L156.4,100.8z M135.2,150.8c-12.1,0-22-9.9-22-22c0-8.7,5.1-16.5,13-20.1v-23
		c-1.9-1-3.7-2.2-5.3-3.8c-8.2-8.2-8.2-21.6,0-29.8c5.8-5.8,14.6-7.7,22.3-4.8c0.2,0.1,0.4,0.3,0.5,0.5s0,0.5-0.2,0.7l-11,11
		l10.8,10.8l11-11c0.2-0.2,0.4-0.2,0.7-0.2s0.4,0.2,0.5,0.5c2.9,7.7,1,16.5-4.8,22.3c-2,2-4.4,3.5-6.9,4.6v22.2
		c8.1,3.5,13.3,11.3,13.3,20.1C157.2,140.9,147.3,150.8,135.2,150.8L135.2,150.8z"/>
</g>
<g>
	<path class="st0" d="M185.6,121.9h-5.5l-1.2,3.6h-1.4l4.5-13h1.7l4.5,13h-1.4L185.6,121.9L185.6,121.9z M185.1,120.7l-2.3-6.8h-0.1
		l-2.3,6.8H185.1L185.1,120.7z"/>
	<path class="st0" d="M203.7,120.8c0,2.8-1.8,4.8-4.3,4.8c-1.4,0-2.6-0.7-3.1-1.8v5.3h-1.2v-13h0.9l0.3,1.4h0.1
		c0.6-0.9,1.5-1.6,3.1-1.6C202,116,203.7,118,203.7,120.8L203.7,120.8z M202.5,120.8c0-2.2-1.3-3.7-3.2-3.7s-3,1.5-3,3.7
		s1.2,3.7,3,3.7S202.5,123,202.5,120.8z"/>
	<path class="st0" d="M213.4,124.5v1h-0.2c-0.9,0-1.5-0.4-1.7-1.3c-0.7,0.9-2,1.4-3.2,1.4c-1.6,0-3-0.8-3-2.6c0-1.9,1.6-2.9,4.2-3.1
		l1.8-0.2v-0.2c0-1.5-0.7-2.6-2.2-2.6s-2.1,1-2.2,2h-1.2c0.2-1.6,1.4-3,3.5-3s3.4,1.4,3.4,3.6v3.8
		C212.5,124.2,212.8,124.5,213.4,124.5z M211.3,121.8v-0.9l-1.7,0.2c-1.9,0.2-3.1,0.9-3.1,2s0.9,1.6,1.9,1.6
		C209.8,124.6,211.3,123.8,211.3,121.8z"/>
	<path class="st0" d="M219.8,116v1.3c-0.1,0-0.4-0.1-0.6-0.1c-1.3,0-2.6,0.9-2.6,3.1v5.2h-1.2v-9.3h0.9l0.2,1.3h0.1
		c0.4-0.7,1.2-1.5,2.7-1.5L219.8,116L219.8,116z"/>
	<path class="st0" d="M225.1,125.7c-1,0-2-0.5-2-2.2v-6.2h-1.8v-0.9h0.5c1,0,1.4-0.4,1.4-1.3v-1.2h1.1v2.3h2.2v1h-2.2v6.1
		c0,0.9,0.4,1.2,1,1.2c0.3,0,0.6-0.1,0.8-0.2l0.4,1C226.1,125.5,225.7,125.7,225.1,125.7L225.1,125.7z"/>
	<path class="st0" d="M233.1,120.8c0-2.7,1.8-4.8,4.6-4.8s4.6,2.1,4.6,4.8s-1.8,4.8-4.6,4.8S233.1,123.6,233.1,120.8L233.1,120.8z
		 M241,120.8c0-2-1.4-3.7-3.4-3.7s-3.3,1.7-3.3,3.7s1.3,3.7,3.3,3.7S241,122.9,241,120.8z"/>
	<path class="st0" d="M246.3,116.2h2.3v1h-2.3v8.2H245v-8.2h-1.6v-1h1.6v-1.7c0-1.4,0.9-2.2,2.1-2.2c0.9,0,1.4,0.4,1.7,0.7l-0.5,0.9
		c-0.2-0.2-0.6-0.5-1.1-0.5c-0.6,0-1,0.5-1,1.3L246.3,116.2L246.3,116.2z"/>
	<path class="st0" d="M259,125.7c-1,0-2-0.5-2-2.2v-6.2h-1.8v-0.9h0.5c1,0,1.4-0.4,1.4-1.3v-1.2h1.1v2.3h2.2v1h-2.2v6.1
		c0,0.9,0.4,1.2,1,1.2c0.3,0,0.6-0.1,0.8-0.2l0.4,1C260.1,125.5,259.7,125.7,259,125.7L259,125.7z"/>
	<path class="st0" d="M269.9,119.9v5.6h-1.2v-5.2c0-2-0.9-3.1-2.6-3.1c-1.3,0-2.5,1-2.5,2.8v5.6h-1.3v-13.2h1.3v5h0.1
		c0.5-0.6,1.5-1.3,2.7-1.3C268.7,116,269.9,117.5,269.9,119.9L269.9,119.9z"/>
	<path class="st0" d="M280.4,121.1h-7.2c0.1,2,1.1,3.5,3.2,3.5c1.1,0,2.2-0.5,2.7-1.7h1.2c-0.5,1.9-2.1,2.8-3.9,2.8
		c-2.8,0-4.4-1.9-4.4-4.9c0-2.8,1.8-4.8,4.3-4.8S280.6,117.7,280.4,121.1L280.4,121.1z M279.2,120.1c0-1.6-1.1-3-2.9-3
		c-1.7,0-2.8,1.2-3.1,3H279.2z"/>
	<path class="st0" d="M294.9,121.9h-5.5l-1.2,3.6h-1.4l4.5-13h1.7l4.5,13h-1.4L294.9,121.9L294.9,121.9z M294.5,120.7l-2.3-6.8h-0.1
		l-2.3,6.8H294.5L294.5,120.7z"/>
	<path class="st0" d="M312.1,119.7v5.8h-1.2v-5.7c0-1.8-1-2.6-2.1-2.6s-2.3,0.9-2.3,2.7v5.6h-1.3v-5.6c0-1.8-1-2.8-2.1-2.8
		c-1.1,0-2.3,0.8-2.3,2.6v5.7h-1.3v-9.3h0.9l0.2,1.2h0.1c0.4-0.7,1.3-1.4,2.6-1.4c1.5,0,2.4,1.1,2.7,1.8h0.1
		c0.4-0.9,1.3-1.8,2.9-1.8C310.8,116,312.1,117.2,312.1,119.7L312.1,119.7z"/>
	<path class="st0" d="M322.5,121.1h-7.2c0.1,2,1.1,3.5,3.2,3.5c1.1,0,2.2-0.5,2.7-1.7h1.2c-0.5,1.9-2.1,2.8-3.9,2.8
		c-2.8,0-4.4-1.9-4.4-4.9c0-2.8,1.8-4.8,4.3-4.8S322.7,117.7,322.5,121.1L322.5,121.1z M321.3,120.1c0-1.6-1.1-3-2.9-3
		c-1.7,0-2.8,1.2-3.1,3H321.3z"/>
	<path class="st0" d="M329.3,116v1.3c-0.1,0-0.4-0.1-0.6-0.1c-1.3,0-2.6,0.9-2.6,3.1v5.2h-1.2v-9.3h0.9l0.2,1.3h0.1
		c0.4-0.7,1.2-1.5,2.7-1.5L329.3,116L329.3,116z"/>
	<path class="st0" d="M331.1,113.7c0-0.5,0.4-0.9,0.9-0.9s0.9,0.4,0.9,0.9s-0.4,0.9-0.9,0.9S331.1,114.2,331.1,113.7z M332.6,125.5
		h-1.3v-9.3h1.3V125.5z"/>
	<path class="st0" d="M339.4,125.7c-3,0-4.5-2.2-4.5-4.8s1.9-4.8,4.5-4.8c2.3,0,3.9,1.5,4.1,3.5h-1.2c-0.2-1.3-1.2-2.3-2.9-2.3
		c-2,0-3.2,1.7-3.2,3.7s1,3.7,3.3,3.7c1.5,0,2.5-1,2.9-2.2h1.3C343.3,124.3,341.6,125.7,339.4,125.7L339.4,125.7z"/>
	<path class="st0" d="M353.5,124.5v1h-0.2c-0.9,0-1.5-0.4-1.7-1.3c-0.7,0.9-2,1.4-3.2,1.4c-1.6,0-3-0.8-3-2.6c0-1.9,1.6-2.9,4.2-3.1
		l1.8-0.2v-0.2c0-1.5-0.7-2.6-2.2-2.6s-2.1,1-2.2,2h-1.2c0.2-1.6,1.4-3,3.5-3s3.4,1.4,3.4,3.6v3.8
		C352.6,124.2,352.9,124.5,353.5,124.5L353.5,124.5z M351.4,121.8v-0.9l-1.7,0.2c-1.9,0.2-3,0.9-3,2s0.9,1.6,1.9,1.6
		C349.9,124.6,351.4,123.8,351.4,121.8z"/>
	<path class="st0" d="M362.9,119.8v5.7h-1.3v-5.4c0-2-1-2.9-2.5-2.9c-1.2,0-2.4,0.8-2.4,2.8v5.6h-1.3v-9.3h0.9l0.2,1.2h0.1
		c0.4-0.6,1.2-1.4,2.9-1.4C361.5,116,362.9,117.3,362.9,119.8L362.9,119.8z"/>
	<path class="st0" d="M372.1,125.5h-1.3v-13h1.3V125.5z"/>
	<path class="st0" d="M382.4,119.8v5.7h-1.3v-5.4c0-2-1-2.9-2.5-2.9c-1.2,0-2.4,0.8-2.4,2.8v5.6h-1.3v-9.3h0.9l0.2,1.2h0.1
		c0.4-0.6,1.2-1.4,2.9-1.4C380.9,116,382.4,117.3,382.4,119.8L382.4,119.8z"/>
	<path class="st0" d="M387.5,125.7c-1,0-2-0.5-2-2.2v-6.2h-1.8v-0.9h0.5c1,0,1.4-0.4,1.4-1.3v-1.2h1.1v2.3h2.2v1h-2.2v6.1
		c0,0.9,0.4,1.2,1,1.2c0.3,0,0.6-0.1,0.8-0.2l0.4,1C388.5,125.5,388.1,125.7,387.5,125.7L387.5,125.7z"/>
	<path class="st0" d="M398.4,121.1h-7.2c0.1,2,1.1,3.5,3.2,3.5c1.1,0,2.2-0.5,2.7-1.7h1.2c-0.5,1.9-2.1,2.8-3.9,2.8
		c-2.8,0-4.4-1.9-4.4-4.9c0-2.8,1.8-4.8,4.3-4.8S398.5,117.7,398.4,121.1L398.4,121.1z M397.1,120.1c0-1.6-1.1-3-2.9-3
		c-1.7,0-2.8,1.2-3.1,3H397.1z"/>
	<path class="st0" d="M405.1,116v1.3c-0.1,0-0.4-0.1-0.6-0.1c-1.3,0-2.6,0.9-2.6,3.1v5.2h-1.2v-9.3h0.9l0.2,1.3h0.1
		c0.4-0.7,1.2-1.5,2.7-1.5L405.1,116L405.1,116z"/>
	<path class="st0" d="M410.6,125.7c-3,0-4.5-2.2-4.5-4.8s1.9-4.8,4.5-4.8c2.3,0,3.9,1.5,4.1,3.5h-1.2c-0.2-1.3-1.2-2.3-2.9-2.3
		c-2,0-3.2,1.7-3.2,3.7s1,3.7,3.3,3.7c1.5,0,2.5-1,2.9-2.2h1.3C414.5,124.3,412.8,125.7,410.6,125.7L410.6,125.7z"/>
	<path class="st0" d="M416.5,120.8c0-2.7,1.8-4.8,4.6-4.8s4.6,2.1,4.6,4.8s-1.8,4.8-4.6,4.8S416.5,123.6,416.5,120.8L416.5,120.8z
		 M424.5,120.8c0-2-1.4-3.7-3.4-3.7s-3.3,1.7-3.3,3.7s1.3,3.7,3.3,3.7S424.5,122.9,424.5,120.8z"/>
	<path class="st0" d="M435.3,119.8v5.7H434v-5.4c0-2-1-2.9-2.5-2.9c-1.2,0-2.4,0.8-2.4,2.8v5.6h-1.3v-9.3h0.9l0.2,1.2h0.1
		c0.4-0.6,1.2-1.4,2.9-1.4C433.8,116,435.3,117.3,435.3,119.8L435.3,119.8z"/>
	<path class="st0" d="M440.4,125.7c-1,0-2-0.5-2-2.2v-6.2h-1.8v-0.9h0.5c1,0,1.4-0.4,1.4-1.3v-1.2h1.1v2.3h2.2v1h-2.2v6.1
		c0,0.9,0.4,1.2,1,1.2c0.3,0,0.6-0.1,0.8-0.2l0.4,1C441.4,125.5,441,125.7,440.4,125.7L440.4,125.7z"/>
	<path class="st0" d="M443.4,113.7c0-0.5,0.4-0.9,0.9-0.9s0.9,0.4,0.9,0.9s-0.4,0.9-0.9,0.9S443.4,114.2,443.4,113.7z M444.9,125.5
		h-1.3v-9.3h1.3V125.5z"/>
	<path class="st0" d="M455.1,119.8v5.7h-1.3v-5.4c0-2-1-2.9-2.5-2.9c-1.2,0-2.4,0.8-2.4,2.8v5.6h-1.3v-9.3h0.9l0.2,1.2h0.1
		c0.4-0.6,1.2-1.4,2.9-1.4C453.7,116,455.1,117.3,455.1,119.8L455.1,119.8z"/>
	<path class="st0" d="M465.6,121.1h-7.2c0.1,2,1.1,3.5,3.2,3.5c1.1,0,2.2-0.5,2.7-1.7h1.2c-0.5,1.9-2.1,2.8-3.9,2.8
		c-2.8,0-4.4-1.9-4.4-4.9c0-2.8,1.8-4.8,4.3-4.8S465.8,117.7,465.6,121.1L465.6,121.1z M464.4,120.1c0-1.6-1.1-3-2.9-3
		c-1.7,0-2.8,1.2-3.1,3H464.4z"/>
	<path class="st0" d="M475.3,119.8v5.7H474v-5.4c0-2-1-2.9-2.5-2.9c-1.2,0-2.4,0.8-2.4,2.8v5.6h-1.3v-9.3h0.9l0.2,1.2h0.1
		c0.4-0.6,1.2-1.4,2.9-1.4C473.9,116,475.3,117.3,475.3,119.8L475.3,119.8z"/>
	<path class="st0" d="M480.4,125.7c-1,0-2-0.5-2-2.2v-6.2h-1.8v-0.9h0.5c1,0,1.4-0.4,1.4-1.3v-1.2h1.1v2.3h2.2v1h-2.2v6.1
		c0,0.9,0.4,1.2,1,1.2c0.3,0,0.6-0.1,0.8-0.2l0.4,1C481.4,125.5,481,125.7,480.4,125.7L480.4,125.7z"/>
	<path class="st0" d="M491.1,124.5v1h-0.2c-0.9,0-1.5-0.4-1.7-1.3c-0.7,0.9-2,1.4-3.2,1.4c-1.6,0-3-0.8-3-2.6c0-1.9,1.6-2.9,4.2-3.1
		l1.8-0.2v-0.2c0-1.5-0.7-2.6-2.2-2.6s-2.1,1-2.2,2h-1.2c0.2-1.6,1.4-3,3.5-3s3.4,1.4,3.4,3.6v3.8
		C490.2,124.2,490.5,124.5,491.1,124.5L491.1,124.5z M489,121.8v-0.9l-1.7,0.2c-1.9,0.2-3,0.9-3,2s0.9,1.6,1.9,1.6
		C487.5,124.6,489,123.8,489,121.8z"/>
	<path class="st0" d="M494.1,112.3v13.2h-1.3v-13.2H494.1z"/>
	<path class="st0" d="M511.9,120.5c0,3.4-2.2,5.2-4.9,5.2s-5-1.8-5-5.2v-8.1h1.4v7.9c0,2.7,1.6,4,3.6,4s3.6-1.3,3.6-4v-7.9h1.4
		L511.9,120.5L511.9,120.5z"/>
	<path class="st0" d="M522,119.8v5.7h-1.3v-5.4c0-2-1-2.9-2.5-2.9c-1.2,0-2.4,0.8-2.4,2.8v5.6h-1.3v-9.3h0.9l0.2,1.2h0.1
		c0.4-0.6,1.2-1.4,2.9-1.4C520.6,116,522,117.3,522,119.8L522,119.8z"/>
	<path class="st0" d="M524.4,113.7c0-0.5,0.4-0.9,0.9-0.9s0.9,0.4,0.9,0.9s-0.4,0.9-0.9,0.9S524.4,114.2,524.4,113.7z M526,125.5
		h-1.3v-9.3h1.3V125.5z"/>
	<path class="st0" d="M536.6,116.2l-3.5,9.3h-1.8l-3.4-9.3h1.3l3,8.1h0.1l3-8.1H536.6z"/>
	<path class="st0" d="M546,121.1h-7.2c0.1,2,1.1,3.5,3.2,3.5c1.1,0,2.2-0.5,2.7-1.7h1.2c-0.5,1.9-2.1,2.8-3.9,2.8
		c-2.8,0-4.4-1.9-4.4-4.9c0-2.8,1.8-4.8,4.3-4.8S546.1,117.7,546,121.1z M544.8,120.1c0-1.6-1.1-3-2.9-3c-1.7,0-2.8,1.2-3.1,3H544.8
		z"/>
	<path class="st0" d="M552.7,116v1.3c-0.1,0-0.4-0.1-0.7-0.1c-1.3,0-2.6,0.9-2.6,3.1v5.2h-1.2v-9.3h0.9l0.2,1.3h0.1
		c0.4-0.7,1.2-1.5,2.7-1.5L552.7,116L552.7,116z"/>
	<path class="st0" d="M557.3,125.7c-2.1,0-3.5-1.4-3.4-3.1h1.2c0,1.5,1.3,2.1,2.3,2.1c1.1,0,2-0.5,2-1.5c0-1.1-1.1-1.6-2.3-1.9
		c-1.3-0.4-2.8-1.1-2.8-2.7s1.3-2.5,3-2.5c2,0,3.1,1.3,3.1,2.7h-1.2c0-1-0.9-1.7-2-1.7c-0.9,0-1.8,0.5-1.8,1.4
		c0,0.9,0.9,1.4,2.1,1.8c1.7,0.6,3,1.2,3,2.9C560.6,124.8,559.2,125.7,557.3,125.7L557.3,125.7z"/>
	<path class="st0" d="M562.4,113.7c0-0.5,0.4-0.9,0.9-0.9s0.9,0.4,0.9,0.9s-0.4,0.9-0.9,0.9S562.4,114.2,562.4,113.7z M563.9,125.5
		h-1.3v-9.3h1.3V125.5z"/>
	<path class="st0" d="M569.6,125.7c-1,0-2-0.5-2-2.2v-6.2h-1.8v-0.9h0.5c1,0,1.4-0.4,1.4-1.3v-1.2h1.1v2.3h2.2v1h-2.2v6.1
		c0,0.9,0.4,1.2,1,1.2c0.3,0,0.6-0.1,0.8-0.2l0.4,1C570.6,125.5,570.2,125.7,569.6,125.7L569.6,125.7z"/>
	<path class="st0" d="M581,116.2l-3.7,10.8c-0.5,1.4-1.2,2.4-2.9,2.4c-1,0-1.7-0.5-2-0.8l0.5-0.9c0.3,0.3,0.8,0.6,1.4,0.6
		c0.9,0,1.5-0.8,1.8-1.7l0.4-1.1h-0.5l-3.7-9.3h1.4l3.1,8h0.1l2.8-8H581z"/>
	<path class="st0" d="M592.6,125.7c-3.1,0-4.6-1.8-4.7-4h1.4c0.1,1.5,1,2.8,3.3,2.8c1.6,0,2.9-0.7,2.9-2.2c0-1.2-0.7-2.1-3.3-2.9
		c-2.1-0.7-3.9-1.6-3.9-3.6s1.7-3.5,4-3.5c2.8,0,4.2,1.9,4.3,3.8h-1.3c-0.1-1.2-0.9-2.6-3-2.6c-1.6,0-2.6,1-2.6,2.2
		c0,1.4,1.1,1.9,3.2,2.6c2.7,0.8,4,2,4,4C596.8,124.6,595,125.7,592.6,125.7L592.6,125.7z"/>
	<path class="st0" d="M606.7,116.2L603,127c-0.5,1.4-1.2,2.4-2.9,2.4c-1,0-1.7-0.5-2-0.8l0.5-0.9c0.3,0.3,0.8,0.6,1.4,0.6
		c0.9,0,1.5-0.8,1.8-1.7l0.4-1.1h-0.5l-3.7-9.3h1.4l3.1,8h0.1l2.8-8H606.7z"/>
	<path class="st0" d="M611.2,125.7c-2.1,0-3.5-1.4-3.4-3.1h1.2c0,1.5,1.3,2.1,2.3,2.1c1.1,0,2-0.5,2-1.5c0-1.1-1.1-1.6-2.3-1.9
		c-1.3-0.4-2.8-1.1-2.8-2.7s1.3-2.5,3-2.5c2,0,3.1,1.3,3.1,2.7H613c0-1-0.9-1.7-2-1.7c-0.9,0-1.8,0.5-1.8,1.4c0,0.9,0.9,1.4,2.1,1.8
		c1.7,0.6,3,1.2,3,2.9C614.4,124.8,613,125.7,611.2,125.7L611.2,125.7z"/>
	<path class="st0" d="M619.2,125.7c-1,0-2-0.5-2-2.2v-6.2h-1.8v-0.9h0.5c1,0,1.4-0.4,1.4-1.3v-1.2h1.1v2.3h2.2v1h-2.2v6.1
		c0,0.9,0.4,1.2,1,1.2c0.3,0,0.6-0.1,0.8-0.2l0.4,1C620.2,125.5,619.8,125.7,619.2,125.7L619.2,125.7z"/>
	<path class="st0" d="M630.1,121.1h-7.2c0.1,2,1.1,3.5,3.2,3.5c1.1,0,2.2-0.5,2.7-1.7h1.2c-0.5,1.9-2.1,2.8-3.9,2.8
		c-2.8,0-4.4-1.9-4.4-4.9c0-2.8,1.8-4.8,4.3-4.8S630.2,117.7,630.1,121.1z M628.9,120.1c0-1.6-1.1-3-2.9-3c-1.7,0-2.8,1.2-3.1,3
		H628.9z"/>
	<path class="st0" d="M645,119.7v5.8h-1.2v-5.7c0-1.8-1-2.6-2.1-2.6s-2.3,0.9-2.3,2.7v5.6h-1.3v-5.6c0-1.8-1-2.8-2.1-2.8
		c-1.1,0-2.3,0.8-2.3,2.6v5.7h-1.3v-9.3h0.9l0.2,1.2h0.1c0.4-0.7,1.3-1.4,2.6-1.4c1.5,0,2.4,1.1,2.7,1.8h0.1
		c0.4-0.9,1.3-1.8,2.9-1.8C643.7,116,645,117.2,645,119.7L645,119.7z"/>
</g>
</svg>
